<svg xmlns="http://www.w3.org/2000/svg" xmlns:xlink="http://www.w3.org/1999/xlink" fill="none" version="1.1" width="150" height="150" viewBox="0 0 150 150"><defs><linearGradient x1="0.5" y1="0" x2="0.5" y2="1" id="master_svg0_1019_22114"><stop offset="0%" stop-color="#090A0B" stop-opacity="1"/><stop offset="100%" stop-color="#090A0B" stop-opacity="0"/></linearGradient><linearGradient x1="0.1661442071199417" y1="0.05037109553813934" x2="0.41572102904319763" y2="0.8610742092132568" id="master_svg1_1019_22098"><stop offset="0%" stop-color="#666666" stop-opacity="1"/><stop offset="100%" stop-color="#333333" stop-opacity="0"/></linearGradient><clipPath id="master_svg2_927_08516"><rect x="0" y="0" width="150" height="150" rx="36"/></clipPath><clipPath id="master_svg3_927_08518"><rect x="27" y="27" width="96" height="96" rx="0"/></clipPath><clipPath id="master_svg4_927_08518/86_04595"><rect x="27" y="27" width="95.99999237060547" height="95.99999237060547" rx="0"/></clipPath><clipPath id="master_svg5_927_08518/86_04596"><rect x="136.86666107177734" y="39.80000305175781" width="231.46665954589844" height="70.39999389648438" rx="0"/></clipPath></defs><g clip-path="url(#master_svg2_927_08516)"><rect x="0" y="0" width="150" height="150" rx="36" fill="url(#master_svg0_1019_22114)" fill-opacity="1"/><g clip-path="url(#master_svg3_927_08518)"><g clip-path="url(#master_svg4_927_08518/86_04595)"><g><path d="M113.3999397857666,82.6071172088623L113.3999397857666,69.2805172088623C113.3999397857666,61.709217208862306,110.1054397857666,55.633217208862305,104.37043978576659,52.608817208862305L74.75023978576661,36.990217208862305L74.6016397857666,37.273761208862304L74.45313978576661,37.55730620886231C79.9721397857666,40.467007208862306,83.1383397857666,46.337057208862305,83.1383397857666,53.661917208862306L83.1383397857666,66.9885172088623C83.1383397857666,67.39021720886231,83.1282397857666,67.8121172088623,83.10803978576661,68.2341172088623C83.10463978576661,68.3151172088623,83.09783978576661,68.39611720886231,83.0911397857666,68.48051720886231L83.07763978576659,68.6797172088623C83.0607397857666,68.9463172088623,83.04383978576661,69.21641720886231,83.01683978576659,69.48301720886231C83.0067397857666,69.5910172088623,82.9932397857666,69.7024172088623,82.97973978576661,69.81051720886231L82.9493397857666,70.0636172088623C82.92233978576661,70.2864172088623,82.8987397857666,70.50581720886231,82.86493978576661,70.7286172088623C82.8480397857666,70.85351720886231,82.8278397857666,70.97501720886231,82.80753978576661,71.09991720886231L82.7772397857666,71.2923172088623C82.74003978576661,71.5185172088623,82.7029397857666,71.74461720886231,82.6590397857666,71.97081720886231C82.5949397857666,72.3083172088623,82.5274397857666,72.6425172088623,82.45313978576661,72.97671720886231L82.4295397857666,73.0746172088623C82.3552397857666,73.3986172088623,82.27423978576661,73.71931720886231,82.1864397857666,74.04001720886231L82.1088397857666,74.32351720886231C82.0177397857666,74.6476172088623,81.92323978576661,74.97161720886231,81.8219397857666,75.2957172088623L81.7307397857666,75.57591720886231C81.6160397857666,75.9303172088623,81.49453978576659,76.2847172088623,81.3662397857666,76.6358172088623C81.33243978576661,76.7303172088623,81.2953397857666,76.8214172088623,81.25823978576659,76.91591720886231L81.2008397857666,77.0678172088623C81.09613978576661,77.33791720886231,80.9915397857666,77.6113172088623,80.8801397857666,77.8813172088623C80.8160397857666,78.04001720886231,80.74513978576661,78.1986172088623,80.6776397857666,78.3573172088623L80.6539397857666,78.4147172088623C80.56623978576661,78.62061720886231,80.4750397857666,78.8265172088623,80.3805397857666,79.02901720886231C80.2995397857666,79.21131720886231,80.2118397857666,79.39021720886231,80.1274397857666,79.56911720886231C80.0295397857666,79.7716172088623,79.9350397857666,79.97081720886231,79.8337397857666,80.1700172088623C79.7392397857666,80.3556172088623,79.6447397857666,80.5379172088623,79.5468397857666,80.7202172088623C79.45233978576661,80.89911720886231,79.3544397857666,81.0813172088623,79.25653978576659,81.2603172088623C79.15523978576661,81.44251720886231,79.0506397857666,81.62481720886231,78.9459397857666,81.80711720886231C78.84473978576659,81.98261720886231,78.74343978576661,82.1615172088623,78.63543978576661,82.33371720886231C78.5274397857666,82.5159172088623,78.4160397857666,82.69491720886231,78.3012397857666,82.8738172088623C78.1932397857666,83.0459172088623,78.0886397857666,83.21471720886231,77.9772397857666,83.38341720886231C77.86243978576661,83.56241720886231,77.74423978576661,83.73451720886231,77.6092397857666,83.9370172088623C77.5012397857666,84.09571720886231,77.39323978576661,84.2543172088623,77.2852397857666,84.4096172088623C77.1704397857666,84.5716172088623,77.0556397857666,84.7303172088623,76.92063978576661,84.91591720886231C76.7957397857666,85.08811720886231,76.6708397857666,85.2569172088623,76.5426397857666,85.4256172088623C76.4177397857666,85.5910172088623,76.2928397857666,85.74971720886231,76.1645397857666,85.91171720886231C76.03283978576661,86.0771172088623,75.9012397857666,86.2459172088623,75.7696397857666,86.4079172088623C75.6548397857666,86.5497172088623,75.5366397857666,86.68811720886231,75.4185397857666,86.8265172088623L75.39493978576661,86.85351720886231C75.2396397857666,87.03921720886231,75.0810397857666,87.2214172088623,74.9189397857666,87.4037172088623C74.7907397857666,87.5489172088623,74.6624397857666,87.6906172088623,74.5341397857666,87.8324172088623C74.3721397857666,88.0113172088623,74.2101397857666,88.1834172088623,74.04473978576661,88.3590172088623C73.9198397857666,88.4906172088623,73.7915397857666,88.61891720886231,73.6632397857666,88.7505172088623C73.4438397857666,88.97331720886231,73.2210397857666,89.1894172088623,72.9949397857666,89.4054172088623L72.8970397857666,89.49991720886231C72.8160397857666,89.5776172088623,72.7383397857666,89.6518172088623,72.6573397857666,89.7294172088623C72.3738397857666,89.9927172088623,72.0869397857666,90.2493172088623,71.7932397857666,90.50241720886231L71.7122397857666,90.5733172088623C71.6818397857666,90.60031720886231,71.6480397857666,90.63071720886231,71.6177397857666,90.6577172088623L71.4793397857666,90.7725172088623C71.2396397857666,90.97501720886231,70.9966397857666,91.1708172088623,70.7535397857666,91.3666172088623C70.6793397857666,91.4273172088623,70.6016397857666,91.4847172088623,70.5240397857666,91.54551720886231L70.4666397857666,91.5894172088623C70.2607397857666,91.74801720886231,70.0548397857666,91.9033172088623,69.8286397857666,92.0687172088623C69.7341397857666,92.1362172088623,69.6430397857666,92.20711720886231,69.5485397857666,92.27461720886231C69.3088397857666,92.44671720886231,69.0691397857666,92.6121172088623,68.8261397857666,92.7742172088623L68.6371397857666,92.9058172088623C68.3198397857666,93.1151172088623,67.9991397857666,93.3176172088623,67.6750397857666,93.51341720886231L67.4691397857666,93.6349172088623C67.2126397857666,93.7868172088623,66.9561397857666,93.9354172088623,66.6961397857666,94.0805172088623C66.6185397857666,94.1244172088623,66.5409397857666,94.1649172088623,66.4632397857666,94.20541720886231L66.3417397857666,94.26951720886231C66.1257397857666,94.38431720886231,65.9130397857666,94.4957172088623,65.6970397857666,94.6071172088623C65.5788397857666,94.6645172088623,65.4607397857666,94.7219172088623,65.34263978576661,94.7792172088623L65.3020397857666,94.79951720886231C65.0928397857666,94.9008172088623,64.8869397857666,94.9953172088623,64.6742397857666,95.08981720886231C64.5392397857666,95.15051720886231,64.4042397857666,95.21131720886231,64.2658397857666,95.26871720886231C64.0531397857666,95.3598172088623,63.8371397857666,95.44761720886231,63.6244397857666,95.5320172088623L63.5096397857666,95.57591720886231C63.4151397857666,95.6130172088623,63.3206397857666,95.6501172088623,63.226139785766605,95.68731720886231C62.993239785766605,95.7750172088623,62.756939785766605,95.85601720886231,62.520639785766605,95.9370172088623L62.3923397857666,95.98091720886231C62.3215397857666,96.0046172088623,62.2506397857666,96.03161720886231,62.1797397857666,96.0552172088623C61.8050397857666,96.1767172088623,61.45733978576661,96.2813172088623,61.1198397857666,96.3759172088623L59.050639785766606,96.9430172088623C58.743439785766604,97.02731720886231,58.4362397857666,97.10501720886231,58.1324397857666,97.1759172088623C58.075039785766606,97.1894172088623,58.021039785766604,97.1995172088623,57.963739785766606,97.20961720886231L57.7341397857666,97.2569172088623C57.5620397857666,97.2940172088623,57.3932397857666,97.33111720886231,57.2210397857666,97.3615172088623C57.1502397857666,97.3750172088623,57.0759397857666,97.38511720886231,57.0050397857666,97.3986172088623L56.728239785766604,97.44591720886231C56.5932397857666,97.4695172088623,56.4582397857666,97.4932172088623,56.3231397857666,97.51001720886231C56.2455397857666,97.5202172088623,56.1679397857666,97.5303172088623,56.0902397857666,97.5370172088623L55.8101397857666,97.57081720886231C55.6852397857666,97.5877172088623,55.5603397857666,97.6012172088623,55.435439785766604,97.6147172088623C55.3847397857666,97.6181172088623,55.3341397857666,97.62141720886231,55.286939785766606,97.62821720886231L55.1721397857666,97.6383172088623C54.9763397857666,97.6552172088623,54.7805397857666,97.6721172088623,54.584839785766604,97.68221720886231C54.5105397857666,97.68561720886231,54.4396397857666,97.6889172088623,54.3653397857666,97.6889172088623L54.257339785766604,97.6889172088623C54.0852397857666,97.6991172088623,53.9164397857666,97.7058172088623,53.7476597857666,97.7058172088623C53.6666497857666,97.7058172088623,53.5822597857666,97.7058172088623,53.5012497857666,97.7058172088623L53.399979785766604,97.7058172088623C53.2413297857666,97.7058172088623,53.079309785766604,97.7025172088623,52.9206597857666,97.6957172088623C52.8328897857666,97.6957172088623,52.7451297857666,97.6889172088623,52.657369785766605,97.68221720886231L52.5695997857666,97.68221720886231C52.4041997857666,97.6687172088623,52.2421797857666,97.6586172088623,52.076779785766604,97.6451172088623L51.860739785766604,97.62481720886231C51.654839785766605,97.60461720886231,51.4522997857666,97.5843172088623,51.2463997857666,97.55731720886232L51.114749785766605,97.5404172088623C50.875089785766605,97.50671720886231,50.635429785766604,97.4695172088623,50.3957597857666,97.4257172088623L50.2168597857666,97.39191720886231C50.068339785766604,97.3615172088623,49.9198097857666,97.33121720886231,49.7712897857666,97.2974172088623C49.5383797857666,97.2468172088623,49.308849785766604,97.1894172088623,49.079309785766604,97.1252172088623L48.981419785766604,97.09821720886231C48.9375397857666,97.08811720886231,48.897029785766605,97.0746172088623,48.853149785766604,97.0645172088623C48.5493497857666,96.97671720886231,48.2522997857666,96.8822172088623,47.9721397857666,96.7843172088623L47.762849785766605,96.7067172088623C47.556949785766605,96.63241720886231,47.3476597857666,96.5514172088623,47.1451297857666,96.4670172088623C47.067489785766604,96.4333172088623,46.989859785766605,96.3995172088623,46.9122197857666,96.3657172088623L46.861589785766604,96.3421172088623C46.6826797857666,96.2645172088623,46.5071597857666,96.1835172088623,46.3316297857666,96.09911720886231L46.2506197857666,96.0586172088623Q46.2202397857666,96.04171720886231,46.2033597857666,96.03491720886231L43.9991397857666,94.8805172088623L45.5957597857666,96.4771172088623L45.6497697857666,96.4771172088623L75.1991397857666,112.0552172088623C75.3004397857666,112.1092172088623,75.4016397857666,112.15981720886231,75.5063397857666,112.21381720886231C75.5400397857666,112.2307172088623,75.57383978576661,112.24421720886231,75.6075397857666,112.2611172088623L75.6717397857666,112.2915172088623C75.8540397857666,112.3792172088623,76.03623978576661,112.4636172088623,76.22533978576661,112.5446172088623L76.27933978576661,112.56831720886231C76.3603397857666,112.6020172088623,76.4379397857666,112.6392172088623,76.5189397857666,112.6729172088623C76.7316397857666,112.7607172088623,76.9443397857666,112.8417172088623,77.16033978576661,112.92271720886231L77.2312397857666,112.94971720886231C77.2683397857666,112.9632172088623,77.3021397857666,112.97671720886231,77.33243978576661,112.9902172088623L77.3763397857666,113.0037172088623C77.6734397857666,113.1083172088623,77.98393978576661,113.2062172088623,78.2945397857666,113.2940172088623C78.3417397857666,113.30751720886231,78.3890397857666,113.3210172088623,78.4362397857666,113.33111720886231L78.5274397857666,113.3548172088623C78.7637397857666,113.41891720886231,79.0067397857666,113.47971720886231,79.2497397857666,113.5337172088623L79.3071397857666,113.5472172088623C79.33753978576661,113.5539172088623,79.3645397857666,113.5607172088623,79.39493978576661,113.56741720886231C79.4658397857666,113.5843172088623,79.5400397857666,113.59781720886231,79.6143397857666,113.6113172088623L79.90123978576659,113.6653172088623C80.1476397857666,113.7092172088623,80.39403978576661,113.74971720886231,80.6438397857666,113.7868172088623L80.78223978576659,113.80371720886231C80.9915397857666,113.83071720886231,81.2042397857666,113.8544172088623,81.4168397857666,113.8746172088623L81.8320397857666,113.9117172088623C81.8962397857666,113.9151172088623,81.96033978576659,113.9185172088623,82.0278397857666,113.92191720886231L82.1898397857666,113.9286172088623C82.2978397857666,113.9354172088623,82.4025397857666,113.9421172088623,82.51393978576661,113.9455172088623C82.6658397857666,113.95221720886231,82.8210397857666,113.95221720886231,82.9729397857666,113.95561720886231L83.10123978576661,113.95561720886231C83.16543978576661,113.95561720886231,83.2261397857666,113.95561720886231,83.2902397857666,113.95561720886231C83.3172397857666,113.95561720886231,83.34093978576661,113.95561720886231,83.3679397857666,113.95561720886231C83.5333397857666,113.95561720886231,83.6987397857666,113.9489172088623,83.89783978576659,113.9387172088623L84.0059397857666,113.9387172088623C84.0801397857666,113.9320172088623,84.15783978576661,113.9320172088623,84.2354397857666,113.9252172088623C84.43463978576659,113.9151172088623,84.6371397857666,113.8982172088623,84.8396397857666,113.8814172088623L84.9476397857666,113.8712172088623C85.0016397857666,113.86791720886231,85.0556397857666,113.86451720886231,85.1400397857666,113.8544172088623C85.25823978576659,113.84091720886231,85.3763397857666,113.82731720886231,85.49453978576659,113.8138172088623L85.7611397857666,113.78011720886231C85.8489397857666,113.7700172088623,85.9367397857666,113.7598172088623,86.0244397857666,113.74631720886231C86.1662397857666,113.7261172088623,86.3046397857666,113.7024172088623,86.4464397857666,113.6788172088623L86.7164397857666,113.6349172088623C86.7940397857666,113.62141720886231,86.87173978576661,113.6113172088623,86.9493397857666,113.59441720886231C87.1249397857666,113.5607172088623,87.3004397857666,113.5235172088623,87.4759397857666,113.4864172088623L87.6919397857666,113.4425172088623C87.7561397857666,113.4290172088623,87.8202397857666,113.4155172088623,87.8843397857666,113.4020172088623C88.19833978576659,113.33111720886231,88.51223978576661,113.2501172088623,88.8295397857666,113.16241720886231L90.8987397857666,112.5953172088623C91.2396397857666,112.5008172088623,91.5974397857666,112.39611720886231,91.98563978576661,112.26781720886231C92.0599397857666,112.24421720886231,92.1308397857666,112.22061720886231,92.2016397857666,112.1936172088623L92.33673978576661,112.1463172088623C92.5797397857666,112.06191720886231,92.8227397857666,111.9776172088623,93.0624397857666,111.88981720886231C93.1670397857666,111.8527172088623,93.2683397857666,111.80881720886231,93.3696397857666,111.7683172088623L93.4675397857666,111.7278172088623C93.68693978576661,111.6400172088623,93.9097397857666,111.5522172088623,94.1257397857666,111.4577172088623C94.2641397857666,111.39701720886231,94.4025397857666,111.33621720886231,94.5443397857666,111.27541720886231C94.7603397857666,111.1776172088623,94.9730397857666,111.0797172088623,95.1856397857666,110.97841720886231L95.25653978576659,110.94461720886231C95.3679397857666,110.89061720886231,95.4793397857666,110.83661720886231,95.5907397857666,110.7826172088623C95.81353978576661,110.6712172088623,96.0329397857666,110.5565172088623,96.2523397857666,110.4383172088623L96.37383978576659,110.3742172088623C96.45483978576661,110.33031720886231,96.5358397857666,110.2898172088623,96.6135397857666,110.24591720886231C96.8801397857666,110.10081720886231,97.1400397857666,109.9455172088623,97.4033397857666,109.7902172088623L97.49113978576659,109.7396172088623C97.5316397857666,109.71601720886231,97.57213978576661,109.6923172088623,97.6160397857666,109.6687172088623C97.9299397857666,109.47971720886231,98.2405397857666,109.2839172088623,98.54763978576659,109.0813172088623L98.7603397857666,108.9362172088623L105.2649397857666,111.8999172088623C109.0658397857666,113.63161720886231,113.3865397857666,110.8535172088623,113.3865397857666,106.6746172088623L113.3865397857666,82.60031720886231Q113.3865397857666,82.5970172088623,113.3865397857666,82.5936172088623L113.3999397857666,82.6071172088623Z" fill="#2ADB5C" fill-opacity="1"/></g><g><path d="M74.76709942779542,36.99697228698731C74.6657994277954,36.9429622869873,74.5645994277954,36.8923222869873,74.46329942779542,36.8416922869873C74.40929942779542,36.8146922869873,74.35189942779542,36.791062286987305,74.29789942779541,36.76405228698731C74.11559942779542,36.676292286987305,73.93329942779542,36.591902286987306,73.75109942779541,36.51089228698731C73.65319942779541,36.467012286987305,73.5586994277954,36.42650228698731,73.45739942779541,36.382622286987306C73.24809942779541,36.2948622869873,73.03539942779541,36.2138422869873,72.81939942779542,36.1362122869873C72.76199942779542,36.1159522869873,72.70459942779542,36.088950286987306,72.64389942779542,36.0686972869873C72.63039942779541,36.0653222869873,72.6168994277954,36.0585712869873,72.60339942779541,36.055195286987306C72.30299942779541,35.950554286987305,71.99919942779542,35.8526632869873,71.69199942779541,35.764900286987306C71.6143994277954,35.741271286987306,71.53669942779541,35.72439328698731,71.45909942779541,35.704140286987304C71.22279942779541,35.640005286987304,70.98309942779541,35.579246286987306,70.74349942779541,35.5286132869873C70.6927994277954,35.518486286987304,70.64559942779542,35.5016092869873,70.59829942779541,35.491482286987306C70.4936994277954,35.46785328698731,70.38899942779541,35.450976286987306,70.2843994277954,35.4307232869873C70.22359942779542,35.4172202869873,70.15949942779541,35.4070942869873,70.09869942779541,35.39359228698731C69.8556994277954,35.3497102869873,69.6092994277954,35.3092042869873,69.35949942779541,35.275448286987306C69.3121994277954,35.268697286987305,69.2649994277954,35.265322286987306,69.21769942779541,35.258571286987305C69.00839942779541,35.2315662869873,68.80249942779541,35.20793828698731,68.58989942779542,35.187684886987306C68.51559942779541,35.1809337869873,68.44129942779541,35.17418268698731,68.36709942779541,35.16743168698731C68.30299942779541,35.160680586987304,68.23879942779541,35.1539295869873,68.17469942779542,35.150554086987306C68.06999942779541,35.1438029869873,67.9653994277954,35.140427486987306,67.86079942779541,35.133676386987304C67.73919942779541,35.1269253869873,67.61769942779542,35.12017428698731,67.4961994277954,35.1167987869873C67.33419942779541,35.110047726987304,67.1687994277954,35.110047726987304,67.00339942779542,35.106672195819804C66.88519942779541,35.106672195819804,66.76369942779542,35.103296666987305,66.64559942779542,35.106672195819804C66.47339942779541,35.106672195819804,66.29789942779541,35.1167987869873,66.12239942779541,35.12017428698731C66.01099942779541,35.123549786987304,65.89619942779541,35.1269253869873,65.7847994277954,35.133676386987304C65.58569942779542,35.1438029869873,65.38309942779541,35.160680586987304,65.18399942779541,35.177558286987306C65.09279942779541,35.18430928698731,65.00169942779542,35.1910603869873,64.91049942779541,35.197811486987305C64.9003994277954,35.197811486987305,64.89029942779541,35.197811486987305,64.88349942779541,35.197811486987305C64.72149942779541,35.2146892869873,64.5560994277954,35.238317286987304,64.39069942779541,35.258571286987305C64.2590994277954,35.275448286987306,64.13079942779541,35.2889502869873,63.99919942779541,35.30582828698731C63.813499427795406,35.332832286987305,63.62779942779541,35.3665882869873,63.44219942779541,35.396967286987305C63.32069942779541,35.4172202869873,63.19909942779541,35.43409828698731,63.077599427795406,35.45772728698731C62.86829942779541,35.49823328698731,62.65569942779541,35.542115286987304,62.442999427795414,35.589372286987306C62.34179942779541,35.6096252869873,62.24389942779541,35.629879286987304,62.14259942779541,35.653507286987306C61.828699427795414,35.72439328698731,61.51479942779541,35.805406286987306,61.20079942779541,35.893170286987306L59.13159942779541,36.4602622869873C58.767099427795415,36.561522286987305,58.40589942779541,36.6695422869873,58.04469942779541,36.787682286987305C57.92659942779541,36.8248122869873,57.81179942779541,36.86870228698731,57.69369942779541,36.9092022869873C57.45059942779541,36.99359228698731,57.207599427795415,37.07798228698731,56.96789942779541,37.1657422869873C56.83289942779541,37.21637228698731,56.697899427795406,37.27038228698731,56.55949942779541,37.324392286987305C56.34009942779541,37.412162286987304,56.120699427795415,37.49992228698731,55.90129942779541,37.594432286987306C55.76289942779541,37.6551922869873,55.621099427795414,37.7159522869873,55.48269942779541,37.776712286987305C55.26669942779541,37.874602286987304,55.05399942779541,37.972492286987304,54.841299427795406,38.073762286987304C54.706299427795415,38.1378922869873,54.57129942779541,38.202032286987304,54.43629942779541,38.2695422869873C54.21349942779541,38.3809322869873,53.99409942779541,38.4957022869873,53.77469942779541,38.61384228698731C53.653199427795414,38.6779822869873,53.53159942779541,38.74211228698731,53.413499427795415,38.8062522869873C53.146799427795415,38.9514022869873,52.88689942779541,39.106672286987305,52.62359942779541,39.261942286987306C52.55269942779541,39.302452286987304,52.48189942779541,39.3429622869873,52.41099942779541,39.3868422869873C52.09699942779541,39.575872286987305,51.78649942779541,39.77502228698731,51.47589942779541,39.97756228698731C51.45909942779541,39.98768228698731,51.44219942779541,40.0011822869873,51.42529942779541,40.011312286987305C51.35779942779541,40.05519228698731,51.29369942779541,40.1024522869873,51.22949942779541,40.1463322869873C50.97969942779541,40.31511228698731,50.73329942779541,40.4838822869873,50.49029942779541,40.659412286987305C50.38899942779541,40.73367228698731,50.287799427795406,40.807942286987306,50.18649942779541,40.8788222869873C49.97379942779541,41.0374722869873,49.76119942779541,41.196122286987304,49.55189942779541,41.358152286987306C49.45399942779541,41.4324122869873,49.356099427795414,41.5100522869873,49.26159942779541,41.584312286987306C49.01179942779541,41.7834622869873,48.76199942779541,41.985992286987305,48.51559942779541,42.19190228698731C48.46829942779541,42.232412286987305,48.42109942779541,42.2695422869873,48.37379942779541,42.30667228698731C48.36369942779541,42.313422286987304,48.35359942779541,42.32355228698731,48.34349942779541,42.330302286987305C48.29279942779541,42.374182286987306,48.24559942779541,42.42144228698731,48.19489942779541,42.4653222869873C47.89789942779541,42.7218622869873,47.60079942779541,42.9851522869873,47.31389942779541,43.2551922869873C47.19579942779541,43.363212286987306,47.08439942779541,43.474602286987306,46.96619942779541,43.585992286987306C46.73669942779541,43.8054022869873,46.51053942779541,44.028192286987306,46.284379427795415,44.254352286987306C46.22361942779541,44.3151122869873,46.16285942779541,44.3724922869873,46.10209942779541,44.433252286987305C46.031219427795406,44.5041422869873,45.96707942779541,44.581782286987305,45.896189427795406,44.65266228698731C45.72741942779541,44.83156228698731,45.55863942779541,45.01047228698731,45.39323942779541,45.19277228698731C45.26159942779541,45.337872286987306,45.12994942779541,45.48307228698731,44.99829942779541,45.62817228698731C44.83289942779541,45.813872286987305,44.67424942779541,46.002872286987305,44.51222942779541,46.1885722869873C44.43120942779541,46.283072286987306,44.35019942779541,46.3741722869873,44.27255942779541,46.46867228698731C44.22530942779541,46.5260722869873,44.17804942779541,46.5868722869873,44.130789427795406,46.6442722869873C43.99239942779541,46.8129722869873,43.85737942779541,46.98177228698731,43.72572942779541,47.153972286987305C43.597459427795414,47.3193722869873,43.465809427795406,47.48477228698731,43.33753942779541,47.650172286987306C43.20589942779541,47.82227228698731,43.07762942779541,47.997772286987306,42.94935942779541,48.1733722869873C42.86834942779541,48.284772286987305,42.78395942779541,48.3927722869873,42.702939427795414,48.50747228698731C42.65905942779541,48.56827228698731,42.62192942779541,48.6290722869873,42.578049427795406,48.689772286987306C42.45990942779541,48.858572286987304,42.34513942779541,49.0307722869873,42.22698942779541,49.1994722869873C42.10547942779541,49.3783722869873,41.98395942779541,49.557272286987306,41.86580942779541,49.739572286987304C41.75441942779541,49.9117722869873,41.64302942779541,50.08727228698731,41.53500942779541,50.26277228698731C41.46074942779541,50.3775722869873,41.38648942779541,50.492372286987305,41.31559942779541,50.6104722869873C41.27509942779541,50.677972286987305,41.23796942779541,50.74887228698731,41.19407942779541,50.8163722869873C41.08606942779541,50.9952722869873,40.98142942779541,51.1741722869873,40.88015942779541,51.356472286987305C40.77213942779541,51.542072286987306,40.66749942779541,51.7277722869873,40.56285942779541,51.9167722869873C40.46158942779541,52.09907228698731,40.36369942779541,52.284772286987305,40.26580942779541,52.4669722869873C40.20504942779541,52.5817722869873,40.13753942779541,52.696572286987305,40.08015942779541,52.8146722869873C40.04302942779541,52.885572286987305,40.01264942779541,52.95647228698731,39.97551942779541,53.0273722869873C39.87087942779541,53.2332722869873,39.77298942779541,53.4391722869873,39.67171942779541,53.6450722869873C39.58395942779541,53.827372286987305,39.49618942779541,54.0096722869873,39.41180942779541,54.195272286987304C39.31728942779541,54.4045722869873,39.22614942779541,54.6138722869873,39.13500942779541,54.8231722869873C39.08099942779541,54.948072286987305,39.02023942779541,55.072872286987305,38.96960942779541,55.2011722869873C38.94597942779541,55.2551722869873,38.92572942779541,55.312572286987304,38.90209942779541,55.369972286987306C38.78732942779541,55.6433722869873,38.68268942779541,55.92017228698731,38.57466942779541,56.2003722869873C38.51728942779541,56.3488722869873,38.45990942779541,56.4939722869873,38.40589942779541,56.6425722869873C38.27424942779541,57.0003722869873,38.15272942779541,57.361572286987304,38.03458942779541,57.7260722869873C38.01433942779541,57.786872286987304,37.99070942779541,57.8475722869873,37.97045942779541,57.9117722869873C37.97045942779541,57.91847228698731,37.96707942779541,57.928572286987304,37.96369942779541,57.9353722869873C37.95357942779541,57.9623722869873,37.94682942779541,57.992772286987304,37.93669942779541,58.019772286987305C37.83205942779541,58.3505722869873,37.73753942779541,58.681372286987305,37.64302942779541,59.01217228698731C37.61601942779541,59.110072286987304,37.58901942779541,59.2045722869873,37.56539142779541,59.3024722869873C37.47762742779541,59.62987228698731,37.39323942779541,59.960672286987304,37.31897742779541,60.2914722869873C37.31222642779541,60.3252722869873,37.30210042779541,60.35897228698731,37.29534942779541,60.39277228698731C37.22783842779541,60.683072286987304,37.16707842779541,60.973372286987306,37.10969542779541,61.266972286987304C37.09956842779541,61.320972286987306,37.09281742779541,61.371672286987305,37.08269042779541,61.42567228698731C37.03543342779541,61.6686722869873,36.99830242779541,61.9117722869873,36.95779642779541,62.15817228698731C36.92741642779541,62.33707228698731,36.89703642779541,62.519372286987306,36.87003242779541,62.698272286987304C36.83290142779541,62.95477228698731,36.80589742779541,63.21127228698731,36.77551742779541,63.4678722869873C36.75526442779541,63.636672286987306,36.73163542779541,63.80537228698731,36.71813342779541,63.974172286987304C36.69112952779541,64.2577722869873,36.67087642779541,64.5446722869873,36.65399872779541,64.83157228698731C36.64387222779541,64.97337228698731,36.63037002779541,65.1117722869873,36.623619027795414,65.2534722869873C36.61012602779541,65.6686722869873,36.59999942779541,66.09737228698731,36.59999942779541,66.5226722869873L36.59999942779541,79.84927228698731C36.59999942779541,84.7066722869873,37.97721942779541,88.85517228698731,40.34007942779541,91.98097228698731C40.57636942779541,92.2948722869873,40.82277942779541,92.5952722869873,41.07594942779541,92.8889722869873C41.46075942779541,93.32777228698731,41.86244942779541,93.74297228698731,42.28775942779541,94.13117228698731C43.27678942779541,95.03917228698731,44.37721942779541,95.8155722869873,45.56877942779541,96.44337228698731L75.18899942779541,112.0585722869873C69.74769942779541,109.18937228698731,66.2235994277954,103.23827228698731,66.22029942779541,95.4644722869873L66.22029942779541,82.1378722869873C66.22029942779541,81.7125722869873,66.23039942779542,81.2838722869873,66.25059942779541,80.85857228698731C66.2573994277954,80.71677228698731,66.27089942779541,80.5783722869873,66.28099942779541,80.4366722869873C66.30129942779541,80.14967228698731,66.3180994277954,79.86617228698731,66.34509942779542,79.5792722869873C66.36199942779541,79.4104722869873,66.3856994277954,79.2416722869873,66.4024994277954,79.0729722869873C66.4328994277954,78.8163722869873,66.4598994277954,78.55987228698731,66.4969994277954,78.3032722869873C66.52399942779542,78.1243722869873,66.5543994277954,77.9420722869873,66.58479942779542,77.7631722869873C66.62529942779541,77.5201722869873,66.6657994277954,77.27377228698731,66.70969942779541,77.03077228698731C66.77379942779541,76.68647228698731,66.8446994277954,76.3421722869873,66.92239942779541,76.0011722869873C66.9290994277954,75.9674722869873,66.93919942779542,75.9336722869873,66.94599942779541,75.8999722869873C67.0235994277954,75.56917228698731,67.1045994277954,75.2382722869873,67.19239942779541,74.91087228698731C67.21939942779541,74.8163722869873,67.24299942779541,74.7184722869873,67.26999942779541,74.62397228698731C67.36119942779541,74.2931722869873,67.45909942779541,73.9589722869873,67.56369942779541,73.6315722869873C67.57379942779541,73.6045722869873,67.5805994277954,73.5741722869873,67.59069942779541,73.5471722869873C67.6109994277954,73.4796722869873,67.6379994277954,73.4087722869873,67.66159942779541,73.3412722869873C67.7796994277954,72.98007228698731,67.90129942779541,72.6155722869873,68.03289942779541,72.2577722869873C68.0868994277954,72.1091722869873,68.1442994277954,71.9640722869873,68.2016994277954,71.8155722869873C68.30629942779541,71.5387722869873,68.41429942779541,71.2619722869873,68.52909942779542,70.98517228698731C68.60339942779541,70.80287228698731,68.68439942779541,70.62057228698731,68.76199942779542,70.44167228698731C68.8531994277954,70.2323722869873,68.94429942779541,70.0231722869873,69.03879942779541,69.8138722869873C69.12319942779541,69.62817228698731,69.2109994277954,69.44587228698731,69.29869942779541,69.2636722869873C69.39659942779541,69.0577722869873,69.4978994277954,68.8518722869873,69.60249942779541,68.6458722869873C69.69699942779542,68.4568722869873,69.7948994277954,68.27127228698731,69.89279942779541,68.0821722869873C69.99069942779542,67.89657228698731,70.0885994277954,67.7142722869873,70.18989942779541,67.5319722869873C70.29449942779542,67.3429722869873,70.39919942779541,67.15727228698731,70.50719942779541,66.9716722869873C70.6117994277954,66.7927722869873,70.71649942779541,66.6104722869873,70.82109942779542,66.4315722869873C70.93249942779542,66.24587228698731,71.04729942779541,66.0636722869873,71.16199942779541,65.8813722869873C71.26999942779541,65.7058722869873,71.3813994277954,65.5336722869873,71.4927994277954,65.3581722869873C71.6109994277954,65.1758722869873,71.7324994277954,64.9969722869873,71.8539994277954,64.8180722869873C71.9687994277954,64.6458722869873,72.0835994277954,64.4771722869873,72.2050994277954,64.30837228698731C72.3265994277954,64.1361722869873,72.45149942779541,63.9640722869873,72.57639942779541,63.795272286987306C72.70459942779542,63.619772286987306,72.83289942779541,63.4442722869873,72.9645994277954,63.27207228698731C73.09279942779541,63.103272286987306,73.22109942779541,62.9412722869873,73.35269942779541,62.77587228698731C73.48779942779541,62.607072286987304,73.6227994277954,62.4349722869873,73.75779942779542,62.266172286987306C73.88269942779542,62.1142722869873,74.01099942779541,61.9623722869873,74.1391994277954,61.810472286987306C74.30129942779541,61.621472286987306,74.45989942779542,61.4323722869873,74.62529942779541,61.24677228698731C74.75359942779541,61.101572286987306,74.88519942779541,60.95647228698731,75.01689942779541,60.811272286987304C75.18229942779541,60.62907228698731,75.35109942779542,60.4501722869873,75.51979942779542,60.271272286987305C75.64809942779542,60.1361722869873,75.77639942779541,60.004572286987305,75.9079994277954,59.872972286987306C76.13079942779541,59.6467722869873,76.36029942779541,59.42397228698731,76.58989942779542,59.2045722869873C76.70459942779542,59.093172286987304,76.81939942779542,58.98177228698731,76.93759942779542,58.873772286987304C77.2278994277954,58.603672286987305,77.52149942779542,58.34047228698731,77.81859942779542,58.0838722869873C77.87929942779542,58.033272286987305,77.93669942779542,57.975872286987304,77.99749942779542,57.92527228698731C78.04469942779541,57.8847722869873,78.0919994277954,57.8475722869873,78.1391994277954,57.810472286987306C78.3856994277954,57.604572286987306,78.63209942779541,57.402072286987305,78.88519942779541,57.2028722869873C78.98309942779541,57.125272286987304,79.0809994277954,57.0509722869873,79.17889942779541,56.97667228698731C79.38819942779541,56.8146722869873,79.60079942779541,56.652672286987304,79.81349942779542,56.4973722869873C79.9147994277954,56.42317228698731,80.0159994277954,56.3488722869873,80.11729942779542,56.27457228698731C80.36029942779541,56.09907228698731,80.6100994277954,55.92697228698731,80.85649942779541,55.7615722869873C80.92069942779541,55.71767228698731,80.98479942779541,55.6703722869873,81.05229942779542,55.62987228698731C81.3763994277954,55.413872286987306,81.70379942779542,55.2079722869873,82.03459942779541,55.00537228698731C82.10549942779541,54.9648722869873,82.17639942779542,54.92437228698731,82.24389942779541,54.883872286987305C82.50719942779541,54.7285722869873,82.77049942779541,54.57337228698731,83.03709942779541,54.428172286987305C83.15529942779541,54.36067228698731,83.27679942779541,54.299972286987305,83.39829942779541,54.235772286987306C83.6176994277954,54.1176722869873,83.84049942779541,54.002872286987305,84.06329942779541,53.89147228698731C84.1982994277954,53.823972286987306,84.3299994277954,53.7598722869873,84.46499942779542,53.6956722869873C84.6775994277954,53.594472286987305,84.89369942779541,53.4931722869873,85.10969942779542,53.39527228698731C85.24809942779541,53.33457228698731,85.3864994277954,53.27377228698731,85.52489942779542,53.21297228698731C85.74429942779541,53.118472286987306,85.9636994277954,53.0307722869873,86.18649942779541,52.942972286987306C86.3214994277954,52.888972286987304,86.45659942779541,52.83497228698731,86.59159942779542,52.7842722869873C86.83119942779541,52.693172286987306,87.07429942779541,52.6087722869873,87.3172994277954,52.5277722869873C87.4353994277954,52.487272286987306,87.5501994277954,52.446772286987304,87.6683994277954,52.4062722869873C88.0294994277954,52.2880722869873,88.39069942779541,52.180072286987304,88.7552994277954,52.078872286987306L90.82449942779542,51.51177228698731C91.1417994277954,51.42397228698731,91.45569942779541,51.346372286987304,91.76629942779542,51.27547228698731C91.8742994277954,51.25187228698731,91.97889942779541,51.2315722869873,92.0835994277954,51.2079722869873C92.28949942779542,51.164072286987306,92.4953994277954,51.116772286987306,92.69789942779542,51.079672286987304C92.82279942779542,51.0560722869873,92.94769942779541,51.0391722869873,93.07259942779541,51.0188722869873C93.25489942779541,50.988572286987306,93.4370994277954,50.95477228698731,93.6193994277954,50.927772286987306C93.75109942779541,50.90747228698731,93.88269942779542,50.897372286987306,94.01439942779541,50.880472286987306C94.18649942779541,50.8602722869873,94.35869942779541,50.83667228698731,94.53079942779542,50.8197722869873C94.62189942779541,50.80967228698731,94.70969942779541,50.80627228698731,94.80079942779541,50.7994722869873C95.00339942779542,50.78267228698731,95.2058994277954,50.76577228698731,95.40509942779542,50.755672286987306C95.51649942779541,50.74887228698731,95.62789942779541,50.74887228698731,95.73919942779541,50.74207228698731C95.9147994277954,50.73537228698731,96.0902994277954,50.7285722869873,96.2657994277954,50.725272286987305C96.38729942779541,50.725272286987305,96.50549942779541,50.725272286987305,96.62359942779541,50.725272286987305C96.7889994277954,50.725272286987305,96.95439942779541,50.725272286987305,97.11649942779542,50.73537228698731C97.23799942779542,50.738772286987306,97.35949942779541,50.74547228698731,97.48099942779541,50.752272286987306C97.64979942779541,50.7623722869873,97.81859942779542,50.77247228698731,97.98399942779541,50.7859722869873C98.05819942779542,50.7927722869873,98.13249942779541,50.7994722869873,98.2067994277954,50.80627228698731C98.41599942779541,50.826472286987304,98.62529942779541,50.8501722869873,98.83459942779541,50.8771722869873C98.88189942779542,50.883872286987305,98.9290994277954,50.887272286987304,98.9763994277954,50.89397228698731C99.22619942779541,50.927772286987306,99.47259942779542,50.9682722869873,99.71559942779541,51.01217228698731C99.77639942779541,51.0222722869873,99.84049942779541,51.0357722869873,99.90129942779541,51.0492722869873C100.05659942779542,51.079672286987304,100.2084994277954,51.1134722869873,100.36369942779541,51.147172286987306C100.60339942779541,51.2011722869873,100.84309942779541,51.2619722869873,101.0792994277954,51.322672286987306C101.15699942779541,51.342972286987305,101.23459942779542,51.36317228698731,101.3121994277954,51.383472286987306C101.61939942779541,51.4712722869873,101.92319942779541,51.565772286987304,102.2235994277954,51.6703722869873C102.29789942779541,51.6973722869873,102.36879942779541,51.724372286987304,102.44299942779541,51.751372286987305C102.65569942779541,51.829072286987305,102.86839942779541,51.9100722869873,103.0775994277954,51.997772286987306C103.17549942779542,52.03827228698731,103.27339942779541,52.0821722869873,103.3712994277954,52.12607228698731C103.5569994277954,52.207072286987305,103.73919942779541,52.2914722869873,103.91809942779541,52.3792722869873C104.07679942779541,52.456872286987306,104.2320994277954,52.5311722869873,104.38729942779541,52.6121722869873L74.76709942779542,36.99697228698731Z" fill="#FFFFFF" fill-opacity="1" style="mix-blend-mode:passthrough"/></g></g><g clip-path="url(#master_svg5_927_08518/86_04596)"><g><path d="M174.5306603088379,99.88533625793457Q169.5279603088379,99.88533625793457,165.01066030883788,97.94403625793457Q160.49336030883788,96.00263625793457,156.9839903088379,92.56803625793458Q153.47466030883788,89.13333625793457,151.5706603088379,84.61603625793457Q149.6666603088379,80.09863625793457,149.6666603088379,75.02133625793456Q149.6666603088379,69.94403625793457,151.60799030883788,65.27733625793456Q153.54933030883788,60.61063625793457,156.9839903088379,57.25066625793457Q160.4186603088379,53.81600625793457,164.93596030883788,51.87466625793457Q169.4533603088379,49.93333625793457,174.5306603088379,49.93333625793457Q179.6079603088379,49.93333625793457,184.1626603088379,51.87466625793457Q188.7173603088379,53.81600625793457,192.1519603088379,57.25066625793457Q195.5866603088379,60.68533625793457,197.5279603088379,65.31463625793457Q199.4693603088379,69.94403625793457,199.4693603088379,75.02133625793456Q199.4693603088379,80.32263625793456,197.37866030883788,85.02663625793457Q195.28796030883788,89.73063625793458,191.5546603088379,93.16533625793457L199.4693603088379,93.16533625793457L199.4693603088379,99.88533625793457L174.5306603088379,99.88533625793457ZM174.5306603088379,56.72800625793457Q170.87196030883788,56.72800625793457,167.5493603088379,58.10933625793457Q164.2266603088379,59.49066625793457,161.6879603088379,62.029336257934574Q159.2239903088379,64.49333625793457,157.80533030883788,67.89063625793457Q156.3866603088379,71.28803625793458,156.3866603088379,75.02133625793456Q156.3866603088379,78.68003625793457,157.76799030883788,82.00263625793457Q159.1493303088379,85.32533625793457,161.6879603088379,87.86403625793457Q164.2266603088379,90.40263625793457,167.5493603088379,91.78403625793457Q170.87196030883788,93.16533625793457,174.5306603088379,93.16533625793457Q178.18936030883788,93.16533625793457,181.5119603088379,91.78403625793457Q184.8346603088379,90.40263625793457,187.3733603088379,87.86403625793457Q189.91196030883788,85.32533625793457,191.2933603088379,82.00263625793457Q192.6746603088379,78.68003625793457,192.6746603088379,75.02133625793456Q192.6746603088379,71.28803625793458,191.2559603088379,67.89063625793457Q189.8373603088379,64.49333625793457,187.3733603088379,62.029336257934574Q184.8346603088379,59.49066625793457,181.5119603088379,58.10933625793457Q178.18936030883788,56.72800625793457,174.5306603088379,56.72800625793457ZM224.33336030883788,100.10933625793457Q220.5253603088379,100.10933625793457,217.0906603088379,98.61603625793457Q213.6559603088379,97.12263625793457,211.0426603088379,94.50933625793456Q208.4293603088379,91.89603625793457,206.93596030883788,88.46133625793456Q205.4426603088379,85.02663625793457,205.4426603088379,81.21863625793458Q205.4426603088379,77.33603625793457,206.93596030883788,73.82663625793457Q208.4293603088379,70.31733625793457,211.0426603088379,67.70403625793458Q213.6559603088379,65.09063625793456,217.0906603088379,63.634636257934574Q220.5253603088379,62.17863625793457,224.33336030883788,62.17863625793457Q228.2159603088379,62.17863625793457,231.72536030883788,63.634636257934574Q235.23466030883787,65.09063625793456,237.84796030883788,67.70403625793458Q240.4613603088379,70.31733625793457,241.91736030883789,73.82663625793457Q243.3733603088379,77.33603625793457,243.3733603088379,81.21863625793458Q243.3733603088379,85.02663625793457,241.91736030883789,88.46133625793456Q240.4613603088379,91.89603625793457,237.84796030883788,94.50933625793456Q235.23466030883787,97.12263625793457,231.72536030883788,98.61603625793457Q228.2159603088379,100.10933625793457,224.33336030883788,100.10933625793457ZM224.33336030883788,68.82403625793457Q219.33066030883788,68.82403625793457,215.74666030883787,72.40803625793457Q214.0293603088379,74.12533625793458,213.0586603088379,76.44003625793457Q212.0879603088379,78.75463625793458,212.0879603088379,81.21863625793458Q212.0879603088379,83.68263625793458,213.0586603088379,85.92263625793457Q214.0293603088379,88.16263625793457,215.74666030883787,89.88003625793456Q217.4639603088379,91.59733625793457,219.6666603088379,92.56803625793458Q221.86936030883788,93.53863625793457,224.33336030883788,93.53863625793457Q226.79736030883788,93.53863625793457,229.1119603088379,92.56803625793458Q231.42666030883788,91.59733625793457,233.06936030883787,89.88003625793456Q234.7119603088379,88.16263625793457,235.6826603088379,85.92263625793457Q236.65336030883788,83.68263625793458,236.65336030883788,81.21863625793458Q236.65336030883788,78.75463625793458,235.6826603088379,76.44003625793457Q234.7119603088379,74.12533625793458,233.06936030883787,72.40803625793457Q231.42666030883788,70.69063625793457,229.14936030883788,69.75733625793457Q226.87196030883788,68.82403625793457,224.33336030883788,68.82403625793457ZM279.13866030883787,99.73603625793457L279.13866030883787,93.98663625793458Q276.74966030883786,96.82403625793458,273.50166030883787,98.46663625793457Q270.2536603088379,100.10933625793457,266.7436603088379,100.10933625793457Q262.7866603088379,100.10933625793457,259.3516603088379,98.65333625793457Q255.9176603088379,97.19733625793458,253.37866030883788,94.50933625793456Q250.76566030883788,91.82133625793458,249.30936030883788,88.34933625793457Q247.8533603088379,84.87733625793457,247.8533603088379,80.99463625793457Q247.8533603088379,77.11203625793456,249.30936030883788,73.64003625793457Q250.76566030883788,70.16803625793457,253.37866030883788,67.48003625793457Q255.9176603088379,64.79203625793457,259.3516603088379,63.336036257934566Q262.7866603088379,61.88003625793457,266.7436603088379,61.88003625793457Q270.62666030883787,61.88003625793457,273.7996603088379,63.44803625793457Q276.9736603088379,65.01603625793457,279.13866030883787,67.77863625793458L279.13866030883787,50.15733525793457L285.7096603088379,50.15733525793457L285.7096603088379,99.73603625793457L279.13866030883787,99.73603625793457ZM266.7436603088379,68.67463625793457Q264.2796603088379,68.67463625793457,262.0396603088379,69.60803625793457Q259.7996603088379,70.54133625793457,258.1576603088379,72.25863625793457Q256.5146603088379,73.97603625793457,255.5436603088379,76.25333625793456Q254.57366030883787,78.53063625793457,254.57366030883787,80.99463625793457Q254.57366030883787,85.99733625793456,258.1576603088379,89.73063625793458Q259.7996603088379,91.44803625793458,262.0396603088379,92.41863625793457Q264.2796603088379,93.38933625793457,266.7436603088379,93.38933625793457Q269.2076603088379,93.38933625793457,271.4856603088379,92.41863625793457Q273.7626603088379,91.44803625793458,275.4056603088379,89.73063625793458Q278.98966030883787,85.99733625793456,278.98966030883787,80.99463625793457Q278.98966030883787,78.53063625793457,278.01866030883787,76.25333625793456Q277.04766030883786,73.97603625793457,275.4056603088379,72.25863625793457Q273.7626603088379,70.54133625793457,271.4856603088379,69.60803625793457Q269.2076603088379,68.67463625793457,266.7436603088379,68.67463625793457ZM299.59766030883793,83.90663625793457Q299.59766030883793,85.69863625793457,300.90366030883786,87.64003625793457Q302.2106603088379,89.58133625793457,303.92766030883786,90.92533625793456Q307.0636603088379,93.38933625793457,311.2456603088379,93.38933625793457Q317.8906603088379,93.38933625793457,322.07166030883786,86.96803625793457L327.74666030883793,90.32803625793457Q324.8346603088379,95.03203625793458,320.5786603088379,97.57063625793458Q316.3226603088379,100.10933625793457,311.2456603088379,100.10933625793457Q307.43766030883785,100.10933625793457,304.0026603088379,98.65333625793457Q300.5676603088379,97.19733625793458,297.9546603088379,94.58403625793457Q295.3416603088379,91.97063625793457,293.8856603088379,88.53603625793457Q292.4296603088379,85.10133625793458,292.4296603088379,81.29333625793457Q292.4296603088379,77.48533625793456,293.8856603088379,74.01333625793457Q295.3416603088379,70.54133625793457,297.9546603088379,67.92803625793456Q300.4936603088379,65.31463625793457,303.96566030883787,63.89603625793457Q307.43766030883785,62.47733625793457,311.2456603088379,62.47733625793457Q315.0536603088379,62.47733625793457,318.5256603088379,63.89603625793457Q321.9976603088379,65.31463625793457,324.5356603088379,67.92803625793456Q330.0616603088379,73.60263625793456,330.0616603088379,81.06933625793457Q330.0616603088379,82.41333625793456,329.8376603088379,83.90663625793457L299.59766030883793,83.90663625793457ZM311.2456603088379,68.60003625793456Q308.1836603088379,68.60003625793456,305.4956603088379,69.94403625793457Q302.80766030883785,71.28803625793458,301.2026603088379,73.49063625793457Q299.59766030883793,75.69333625793458,299.59766030883793,78.15733625793457L322.89366030883787,78.15733625793457Q322.89366030883787,75.69333625793458,321.28766030883787,73.49063625793457Q319.68266030883785,71.28803625793458,316.99466030883787,69.94403625793457Q314.3066603088379,68.60003625793456,311.2456603088379,68.60003625793456ZM353.4316603088379,69.57063625793457Q351.6396603088379,68.74933625793457,350.2216603088379,68.74933625793457Q347.2346603088379,68.74933625793457,345.2936603088379,70.84003625793457Q343.2026603088379,73.08003625793457,343.2026603088379,75.99203625793457L343.2026603088379,99.73603625793457L336.7816603088379,99.73603625793457L336.7816603088379,75.99203625793457Q336.7816603088379,71.96003625793458,338.8346603088379,68.60003625793456Q340.8876603088379,65.24003625793458,344.4716603088379,63.37333625793457Q347.1596603088379,62.10403625793457,350.2216603088379,62.10403625793457Q352.6856603088379,62.10403625793457,354.9256603088379,63.00003625793457Q357.1656603088379,63.89603625793457,359.62966030883786,65.91203625793457L353.4316603088379,69.57063625793457Z" fill="#FFFFFF" fill-opacity="1"/></g></g></g><rect x="0.5" y="0.5" width="149" height="149" rx="35.5" stroke="url(#master_svg1_1019_22098)" fill-opacity="0" fill="none" stroke-width="1"/></g></svg>